<mxfile host="app.diagrams.net" agent="Mozilla/5.0 (Windows NT 10.0; Win64; x64) AppleWebKit/537.36 (KHTML, like Gecko) Chrome/131.0.0.0 Safari/537.36" version="26.0.4">
  <diagram name="페이지-1" id="sv2N6qxOZAtlVDRyEEXY">
    <mxGraphModel dx="2049" dy="1237" grid="1" gridSize="10" guides="1" tooltips="1" connect="1" arrows="1" fold="1" page="1" pageScale="1" pageWidth="827" pageHeight="1169" math="0" shadow="0">
      <root>
        <mxCell id="0" />
        <mxCell id="1" parent="0" />
        <mxCell id="cUledtLy-DvFWvWRXGEA-38" value="조직 관리 개선 목적" style="fillColor=#dae8fc;strokeColor=#6c8ebf;" vertex="1" parent="1">
          <mxGeometry x="793" y="20" width="202" height="54" as="geometry" />
        </mxCell>
        <mxCell id="cUledtLy-DvFWvWRXGEA-39" value="현재 문제점 식별" style="fillColor=#dae8fc;strokeColor=#6c8ebf;" vertex="1" parent="1">
          <mxGeometry x="803" y="124" width="182" height="54" as="geometry" />
        </mxCell>
        <mxCell id="cUledtLy-DvFWvWRXGEA-40" value="프로세스 매핑 활용" style="fillColor=#dae8fc;strokeColor=#6c8ebf;" vertex="1" parent="1">
          <mxGeometry x="795" y="228" width="198" height="54" as="geometry" />
        </mxCell>
        <mxCell id="cUledtLy-DvFWvWRXGEA-41" value="개별 업무 플로차트 작성" style="fillColor=#dae8fc;strokeColor=#6c8ebf;" vertex="1" parent="1">
          <mxGeometry x="628" y="344" width="234" height="54" as="geometry" />
        </mxCell>
        <mxCell id="cUledtLy-DvFWvWRXGEA-42" value="팀 단위 프로세스 매핑" style="fillColor=#dae8fc;strokeColor=#6c8ebf;" vertex="1" parent="1">
          <mxGeometry x="449" y="472" width="218" height="54" as="geometry" />
        </mxCell>
        <mxCell id="cUledtLy-DvFWvWRXGEA-43" value="센터 전체 프로세스 매핑" style="fillColor=#dae8fc;strokeColor=#6c8ebf;" vertex="1" parent="1">
          <mxGeometry x="177" y="588" width="234" height="54" as="geometry" />
        </mxCell>
        <mxCell id="cUledtLy-DvFWvWRXGEA-44" value="장점 도출" style="fillColor=#dae8fc;strokeColor=#6c8ebf;" vertex="1" parent="1">
          <mxGeometry x="230" y="692" width="129" height="54" as="geometry" />
        </mxCell>
        <mxCell id="cUledtLy-DvFWvWRXGEA-45" value="강점 강화" style="fillColor=#dae8fc;strokeColor=#6c8ebf;" vertex="1" parent="1">
          <mxGeometry x="20" y="796" width="129" height="54" as="geometry" />
        </mxCell>
        <mxCell id="cUledtLy-DvFWvWRXGEA-46" value="약점 보완" style="fillColor=#dae8fc;strokeColor=#6c8ebf;" vertex="1" parent="1">
          <mxGeometry x="199" y="796" width="129" height="54" as="geometry" />
        </mxCell>
        <mxCell id="cUledtLy-DvFWvWRXGEA-47" value="자원 투입 최적화" style="fillColor=#dae8fc;strokeColor=#6c8ebf;" vertex="1" parent="1">
          <mxGeometry x="378" y="796" width="182" height="54" as="geometry" />
        </mxCell>
        <mxCell id="cUledtLy-DvFWvWRXGEA-48" value="팀 간 협력 강화" style="fillColor=#dae8fc;strokeColor=#6c8ebf;" vertex="1" parent="1">
          <mxGeometry x="615" y="796" width="170" height="54" as="geometry" />
        </mxCell>
        <mxCell id="cUledtLy-DvFWvWRXGEA-49" value="도구 활용: GPT와 Mermaid Code" style="fillColor=#dae8fc;strokeColor=#6c8ebf;" vertex="1" parent="1">
          <mxGeometry x="912" y="332" width="260" height="78" as="geometry" />
        </mxCell>
        <mxCell id="cUledtLy-DvFWvWRXGEA-50" value="사례 참고: 품질 리스크 최소화" style="fillColor=#dae8fc;strokeColor=#6c8ebf;" vertex="1" parent="1">
          <mxGeometry x="718" y="460" width="260" height="78" as="geometry" />
        </mxCell>
        <mxCell id="cUledtLy-DvFWvWRXGEA-51" value="VSM으로 확장 가능" style="fillColor=#dae8fc;strokeColor=#6c8ebf;" vertex="1" parent="1">
          <mxGeometry x="462" y="588" width="194" height="54" as="geometry" />
        </mxCell>
        <mxCell id="cUledtLy-DvFWvWRXGEA-52" value="현재 상황 가시화" style="fillColor=#dae8fc;strokeColor=#6c8ebf;" vertex="1" parent="1">
          <mxGeometry x="378" y="912" width="182" height="54" as="geometry" />
        </mxCell>
        <mxCell id="cUledtLy-DvFWvWRXGEA-53" value="구성원 참여 증가" style="fillColor=#dae8fc;strokeColor=#6c8ebf;" vertex="1" parent="1">
          <mxGeometry x="609" y="912" width="182" height="54" as="geometry" />
        </mxCell>
        <mxCell id="cUledtLy-DvFWvWRXGEA-54" value="단기 목표 달성" style="fillColor=#dae8fc;strokeColor=#6c8ebf;" vertex="1" parent="1">
          <mxGeometry x="888" y="796" width="166" height="54" as="geometry" />
        </mxCell>
        <mxCell id="cUledtLy-DvFWvWRXGEA-55" value="중기 목표 팀 간 협력 증대 및 연계 강화" style="fillColor=#dae8fc;strokeColor=#6c8ebf;" vertex="1" parent="1">
          <mxGeometry x="841" y="900" width="260" height="78" as="geometry" />
        </mxCell>
        <mxCell id="cUledtLy-DvFWvWRXGEA-56" value="장기 목표 센터 전체 가치 증명" style="fillColor=#dae8fc;strokeColor=#6c8ebf;" vertex="1" parent="1">
          <mxGeometry x="841" y="1028" width="260" height="78" as="geometry" />
        </mxCell>
        <mxCell id="cUledtLy-DvFWvWRXGEA-57" value="" style="curved=1;startArrow=circle;startFill=0;endArrow=circle;endFill=0;exitX=0.5;exitY=1;entryX=0.5;entryY=0;rounded=0;fillColor=#dae8fc;strokeColor=#6c8ebf;" edge="1" parent="1" source="cUledtLy-DvFWvWRXGEA-38" target="cUledtLy-DvFWvWRXGEA-39">
          <mxGeometry relative="1" as="geometry">
            <Array as="points" />
          </mxGeometry>
        </mxCell>
        <mxCell id="cUledtLy-DvFWvWRXGEA-58" value="" style="curved=1;startArrow=none;endArrow=circle;endFill=0;exitX=0.5;exitY=1;entryX=0.5;entryY=0;rounded=0;fillColor=#dae8fc;strokeColor=#6c8ebf;" edge="1" parent="1" source="cUledtLy-DvFWvWRXGEA-39" target="cUledtLy-DvFWvWRXGEA-40">
          <mxGeometry relative="1" as="geometry">
            <Array as="points" />
          </mxGeometry>
        </mxCell>
        <mxCell id="cUledtLy-DvFWvWRXGEA-59" value="" style="curved=1;startArrow=none;endArrow=circle;endFill=0;exitX=0.11;exitY=1;entryX=0.5;entryY=0;rounded=0;fillColor=#dae8fc;strokeColor=#6c8ebf;" edge="1" parent="1" source="cUledtLy-DvFWvWRXGEA-40" target="cUledtLy-DvFWvWRXGEA-41">
          <mxGeometry relative="1" as="geometry">
            <Array as="points">
              <mxPoint x="745" y="307" />
            </Array>
          </mxGeometry>
        </mxCell>
        <mxCell id="cUledtLy-DvFWvWRXGEA-60" value="" style="curved=1;startArrow=none;endArrow=circle;endFill=0;exitX=0.16;exitY=1;entryX=0.5;entryY=0;rounded=0;fillColor=#dae8fc;strokeColor=#6c8ebf;" edge="1" parent="1" source="cUledtLy-DvFWvWRXGEA-41" target="cUledtLy-DvFWvWRXGEA-42">
          <mxGeometry relative="1" as="geometry">
            <Array as="points">
              <mxPoint x="559" y="435" />
            </Array>
          </mxGeometry>
        </mxCell>
        <mxCell id="cUledtLy-DvFWvWRXGEA-61" value="" style="curved=1;startArrow=none;endArrow=circle;endFill=0;exitX=0;exitY=0.99;entryX=0.5;entryY=0;rounded=0;fillColor=#dae8fc;strokeColor=#6c8ebf;" edge="1" parent="1" source="cUledtLy-DvFWvWRXGEA-42" target="cUledtLy-DvFWvWRXGEA-43">
          <mxGeometry relative="1" as="geometry">
            <Array as="points">
              <mxPoint x="294" y="563" />
            </Array>
          </mxGeometry>
        </mxCell>
        <mxCell id="cUledtLy-DvFWvWRXGEA-62" value="" style="curved=1;startArrow=none;endArrow=circle;endFill=0;exitX=0.5;exitY=1;entryX=0.5;entryY=0;rounded=0;fillColor=#dae8fc;strokeColor=#6c8ebf;" edge="1" parent="1" source="cUledtLy-DvFWvWRXGEA-43" target="cUledtLy-DvFWvWRXGEA-44">
          <mxGeometry relative="1" as="geometry">
            <Array as="points" />
          </mxGeometry>
        </mxCell>
        <mxCell id="cUledtLy-DvFWvWRXGEA-63" value="" style="curved=1;startArrow=none;endArrow=circle;endFill=0;exitX=0;exitY=0.8;entryX=0.5;entryY=0;rounded=0;fillColor=#dae8fc;strokeColor=#6c8ebf;" edge="1" parent="1" source="cUledtLy-DvFWvWRXGEA-44" target="cUledtLy-DvFWvWRXGEA-45">
          <mxGeometry relative="1" as="geometry">
            <Array as="points">
              <mxPoint x="84" y="771" />
            </Array>
          </mxGeometry>
        </mxCell>
        <mxCell id="cUledtLy-DvFWvWRXGEA-64" value="" style="curved=1;startArrow=none;endArrow=circle;endFill=0;exitX=0.37;exitY=1;entryX=0.5;entryY=0;rounded=0;fillColor=#dae8fc;strokeColor=#6c8ebf;" edge="1" parent="1" source="cUledtLy-DvFWvWRXGEA-44" target="cUledtLy-DvFWvWRXGEA-46">
          <mxGeometry relative="1" as="geometry">
            <Array as="points">
              <mxPoint x="263" y="771" />
            </Array>
          </mxGeometry>
        </mxCell>
        <mxCell id="cUledtLy-DvFWvWRXGEA-65" value="" style="curved=1;startArrow=none;endArrow=circle;endFill=0;exitX=1;exitY=0.86;entryX=0.5;entryY=0;rounded=0;fillColor=#dae8fc;strokeColor=#6c8ebf;" edge="1" parent="1" source="cUledtLy-DvFWvWRXGEA-44" target="cUledtLy-DvFWvWRXGEA-47">
          <mxGeometry relative="1" as="geometry">
            <Array as="points">
              <mxPoint x="468" y="771" />
            </Array>
          </mxGeometry>
        </mxCell>
        <mxCell id="cUledtLy-DvFWvWRXGEA-66" value="" style="curved=1;startArrow=none;endArrow=circle;endFill=0;exitX=1;exitY=0.65;entryX=0.5;entryY=0;rounded=0;fillColor=#dae8fc;strokeColor=#6c8ebf;" edge="1" parent="1" source="cUledtLy-DvFWvWRXGEA-44" target="cUledtLy-DvFWvWRXGEA-48">
          <mxGeometry relative="1" as="geometry">
            <Array as="points">
              <mxPoint x="700" y="771" />
            </Array>
          </mxGeometry>
        </mxCell>
        <mxCell id="cUledtLy-DvFWvWRXGEA-67" value="" style="curved=1;startArrow=none;endArrow=circle;endFill=0;exitX=0.89;exitY=1;entryX=0.5;entryY=0;rounded=0;fillColor=#dae8fc;strokeColor=#6c8ebf;" edge="1" parent="1" source="cUledtLy-DvFWvWRXGEA-40" target="cUledtLy-DvFWvWRXGEA-49">
          <mxGeometry relative="1" as="geometry">
            <Array as="points">
              <mxPoint x="1042" y="307" />
            </Array>
          </mxGeometry>
        </mxCell>
        <mxCell id="cUledtLy-DvFWvWRXGEA-68" value="" style="curved=1;startArrow=none;endArrow=circle;endFill=0;exitX=0.69;exitY=1;entryX=0.5;entryY=0;rounded=0;fillColor=#dae8fc;strokeColor=#6c8ebf;" edge="1" parent="1" source="cUledtLy-DvFWvWRXGEA-41" target="cUledtLy-DvFWvWRXGEA-50">
          <mxGeometry relative="1" as="geometry">
            <Array as="points">
              <mxPoint x="848" y="435" />
            </Array>
          </mxGeometry>
        </mxCell>
        <mxCell id="cUledtLy-DvFWvWRXGEA-69" value="" style="curved=1;startArrow=none;endArrow=circle;endFill=0;exitX=0.5;exitY=1;entryX=0.5;entryY=0;rounded=0;fillColor=#dae8fc;strokeColor=#6c8ebf;" edge="1" parent="1" source="cUledtLy-DvFWvWRXGEA-42" target="cUledtLy-DvFWvWRXGEA-51">
          <mxGeometry relative="1" as="geometry">
            <Array as="points" />
          </mxGeometry>
        </mxCell>
        <mxCell id="cUledtLy-DvFWvWRXGEA-70" value="" style="curved=1;startArrow=none;endArrow=circle;endFill=0;exitX=0.5;exitY=1;entryX=0.5;entryY=0;rounded=0;fillColor=#dae8fc;strokeColor=#6c8ebf;" edge="1" parent="1" source="cUledtLy-DvFWvWRXGEA-47" target="cUledtLy-DvFWvWRXGEA-52">
          <mxGeometry relative="1" as="geometry">
            <Array as="points" />
          </mxGeometry>
        </mxCell>
        <mxCell id="cUledtLy-DvFWvWRXGEA-71" value="" style="curved=1;startArrow=none;endArrow=circle;endFill=0;exitX=0.5;exitY=1;entryX=0.5;entryY=0;rounded=0;fillColor=#dae8fc;strokeColor=#6c8ebf;" edge="1" parent="1" source="cUledtLy-DvFWvWRXGEA-48" target="cUledtLy-DvFWvWRXGEA-53">
          <mxGeometry relative="1" as="geometry">
            <Array as="points" />
          </mxGeometry>
        </mxCell>
        <mxCell id="cUledtLy-DvFWvWRXGEA-72" value="" style="curved=1;startArrow=none;endArrow=circle;endFill=0;exitX=1;exitY=0.59;entryX=0.5;entryY=0;rounded=0;fillColor=#dae8fc;strokeColor=#6c8ebf;" edge="1" parent="1" source="cUledtLy-DvFWvWRXGEA-44" target="cUledtLy-DvFWvWRXGEA-54">
          <mxGeometry relative="1" as="geometry">
            <Array as="points">
              <mxPoint x="971" y="771" />
            </Array>
          </mxGeometry>
        </mxCell>
        <mxCell id="cUledtLy-DvFWvWRXGEA-73" value="" style="curved=1;startArrow=none;endArrow=circle;endFill=0;exitX=0.5;exitY=1;entryX=0.5;entryY=0;rounded=0;fillColor=#dae8fc;strokeColor=#6c8ebf;" edge="1" parent="1" source="cUledtLy-DvFWvWRXGEA-54" target="cUledtLy-DvFWvWRXGEA-55">
          <mxGeometry relative="1" as="geometry">
            <Array as="points" />
          </mxGeometry>
        </mxCell>
        <mxCell id="cUledtLy-DvFWvWRXGEA-74" value="" style="curved=1;startArrow=none;endArrow=circle;endFill=0;exitX=0.5;exitY=1;entryX=0.5;entryY=0;rounded=0;fillColor=#dae8fc;strokeColor=#6c8ebf;" edge="1" parent="1" source="cUledtLy-DvFWvWRXGEA-55" target="cUledtLy-DvFWvWRXGEA-56">
          <mxGeometry relative="1" as="geometry">
            <Array as="points" />
          </mxGeometry>
        </mxCell>
      </root>
    </mxGraphModel>
  </diagram>
</mxfile>
